<svg xmlns="http://www.w3.org/2000/svg" viewBox="0 0 512 512" fill="none">
  <rect width="512" height="512" rx="112" fill="#0f1117"/>
  <rect x="32" y="32" width="448" height="448" rx="96" fill="#151922" stroke="#2a3142" stroke-width="4"/>
  <path
    d="M256 120c-52 0-94 38-94 85 0 28 14 53 36 68l-18 139h152l-18-139c22-15 36-40 36-68 0-47-42-85-94-85z"
    fill="#e8eaef"
  />
  <path
    d="M256 120c-52 0-94 38-94 85 0 28 14 53 36 68l-18 139h36l12-92c-14-8-24-22-24-39 0-28 30-51 68-51s68 23 68 51c0 17-10 31-24 39l12 92h36l-18-139c22-15 36-40 36-68 0-47-42-85-94-85z"
    fill="#c9cdd6"
  />
  <ellipse cx="256" cy="392" rx="88" ry="16" fill="#090b10" opacity="0.35"/>
</svg>
